<svg width="1376" height="152" viewBox="0 0 1376 152" fill="none" xmlns="http://www.w3.org/2000/svg">
<path d="M1294.04 130.667V34.6675H1337.78C1340.93 34.6675 1343.87 34.8453 1346.6 35.2008C1349.33 35.5564 1351.68 36.0008 1353.64 36.5341C1358.27 37.8971 1362.37 40.5637 1365.93 44.5341C1369.5 48.4452 1371.28 53.8673 1371.28 60.8006C1371.28 64.8895 1370.63 68.2672 1369.32 70.9339C1368.01 73.5413 1366.29 75.7338 1364.15 77.5116C1363.14 78.3412 1362.1 79.0523 1361.03 79.6449C1359.96 80.2375 1358.9 80.7116 1357.83 81.0671C1360.14 81.4227 1362.34 82.1042 1364.42 83.1116C1367.69 84.7115 1370.42 87.0819 1372.61 90.2226C1374.87 93.3633 1376 97.7781 1376 103.467C1376 109.926 1374.43 115.378 1371.28 119.822C1368.19 124.208 1363.65 127.259 1357.65 128.978C1355.45 129.57 1352.93 130.015 1350.08 130.311C1347.22 130.548 1344.31 130.667 1341.34 130.667H1294.04ZM1315.78 114.134H1339.83C1341.08 114.134 1342.44 114.015 1343.93 113.778C1345.41 113.541 1346.75 113.215 1347.94 112.8C1350.08 112.03 1351.62 110.667 1352.57 108.711C1353.58 106.756 1354.08 104.711 1354.08 102.578C1354.08 99.6744 1353.34 97.3633 1351.86 95.6448C1350.43 93.867 1348.71 92.6818 1346.69 92.0893C1345.5 91.6152 1344.2 91.3485 1342.77 91.2893C1341.4 91.1708 1340.28 91.1115 1339.39 91.1115H1315.78V114.134ZM1315.78 74.3116H1333.59C1335.44 74.3116 1337.22 74.2227 1338.94 74.045C1340.72 73.8079 1342.21 73.4227 1343.39 72.8894C1345.35 72.119 1346.78 70.8154 1347.67 68.9783C1348.62 67.1413 1349.1 65.0969 1349.1 62.845C1349.1 60.4747 1348.56 58.3414 1347.49 56.4451C1346.48 54.4896 1344.85 53.1859 1342.59 52.534C1341.11 51.9414 1339.3 51.6155 1337.16 51.5562C1335.08 51.497 1333.74 51.4674 1333.15 51.4674H1315.78V74.3116Z" fill="#222222"/>
<path d="M1226.57 133.334C1216.95 133.334 1208.54 131.172 1201.36 126.846C1194.17 122.52 1188.59 116.564 1184.61 108.979C1180.69 101.335 1178.73 92.5644 1178.73 82.6682C1178.73 72.5942 1180.75 63.7647 1184.79 56.1795C1188.83 48.5944 1194.44 42.6685 1201.62 38.4019C1208.81 34.1353 1217.13 32.002 1226.57 32.002C1236.25 32.002 1244.68 34.1649 1251.87 38.4908C1259.06 42.8167 1264.64 48.8018 1268.62 56.4462C1272.6 64.0313 1274.59 72.772 1274.59 82.6682C1274.59 92.6237 1272.57 101.424 1268.53 109.068C1264.55 116.653 1258.97 122.609 1251.78 126.935C1244.59 131.201 1236.19 133.334 1226.57 133.334ZM1226.57 113.246C1235.12 113.246 1241.48 110.401 1245.63 104.712C1249.79 99.0237 1251.87 91.6756 1251.87 82.6682C1251.87 73.3646 1249.76 65.9572 1245.55 60.4462C1241.33 54.8758 1235 52.0907 1226.57 52.0907C1220.81 52.0907 1216.06 53.3944 1212.32 56.0018C1208.63 58.5499 1205.9 62.135 1204.12 66.7572C1202.34 71.3202 1201.45 76.6238 1201.45 82.6682C1201.45 91.9719 1203.55 99.4088 1207.77 104.979C1212.05 110.49 1218.31 113.246 1226.57 113.246Z" fill="#222222"/>
<path d="M1073.06 130.667V34.6675H1094.53V72.5339H1137.74V34.6675H1159.21V130.667H1137.74V92.6226H1094.53V130.667H1073.06Z" fill="#222222"/>
<path d="M1017.19 19.823V0.267578H1036.79V19.823H1017.19ZM980.395 19.823V0.267578H999.994V19.823H980.395ZM1009.79 133.333C1000.05 133.333 991.501 131.23 984.136 127.022C976.772 122.815 971.011 116.978 966.853 109.511C962.755 102.045 960.706 93.4521 960.706 83.7336C960.706 73.2448 962.725 64.1486 966.764 56.4449C970.803 48.682 976.415 42.6673 983.602 38.4006C990.788 34.134 999.103 32.0007 1008.55 32.0007C1018.52 32.0007 1026.99 34.3414 1033.94 39.0229C1040.94 43.645 1046.14 50.1931 1049.53 58.6671C1052.91 67.1411 1054.19 77.1263 1053.36 88.6225H1032.07V80.8003C1032.01 70.3708 1030.17 62.756 1026.54 57.956C1022.92 53.1561 1017.22 50.7561 1009.44 50.7561C1000.65 50.7561 994.114 53.482 989.838 58.9338C985.562 64.3264 983.424 72.2374 983.424 82.667C983.424 92.3854 985.562 99.9113 989.838 105.245C994.114 110.578 1000.35 113.245 1008.55 113.245C1013.83 113.245 1018.38 112.089 1022.18 109.778C1026.04 107.408 1029.01 104 1031.09 99.5557L1052.29 105.956C1048.61 114.607 1042.9 121.333 1035.18 126.133C1027.52 130.933 1019.06 133.333 1009.79 133.333ZM976.653 88.6225V72.4448H1042.85V88.6225H976.653Z" fill="#222222"/>
<path d="M836.939 130.667V34.6675H854.579L889.056 100.978L923.622 34.6675H941.173V130.667H920.683V77.7783L893.332 130.667H884.869L857.519 77.7783V130.667H836.939Z" fill="#222222"/>
<path d="M776.285 133.334C766.545 133.334 757.992 131.231 750.627 127.023C743.263 122.816 737.502 116.979 733.344 109.512C729.246 102.046 727.197 93.4533 727.197 83.7349C727.197 73.2461 729.217 64.1498 733.255 56.4462C737.294 48.6833 742.907 42.6685 750.093 38.4019C757.279 34.1353 765.594 32.002 775.038 32.002C785.016 32.002 793.479 34.3427 800.428 39.0241C807.436 43.6463 812.633 50.1944 816.018 58.6684C819.404 67.1424 820.681 77.1275 819.849 88.6237H798.557V80.8016C798.498 70.372 796.656 62.7573 793.034 57.9573C789.411 53.1573 783.709 50.7574 775.929 50.7574C767.139 50.7574 760.605 53.4833 756.329 58.9351C752.053 64.3276 749.915 72.2387 749.915 82.6682C749.915 92.3867 752.053 99.9125 756.329 105.246C760.605 110.579 766.842 113.246 775.038 113.246C780.324 113.246 784.867 112.09 788.668 109.779C792.529 107.409 795.498 104.001 797.577 99.557L818.78 105.957C815.098 114.609 809.396 121.335 801.675 126.135C794.014 130.935 785.55 133.334 776.285 133.334ZM743.144 88.6237V72.4461H809.337V88.6237H743.144Z" fill="#222222"/>
<path d="M655.253 133.332C642.424 133.332 631.437 130.547 622.29 124.977C613.144 119.347 606.106 111.525 601.177 101.51C596.306 91.4956 593.871 79.8809 593.871 66.6662C593.871 53.4514 596.306 41.8367 601.177 31.822C606.106 21.8072 613.144 14.0147 622.29 8.44437C631.437 2.81479 642.424 0 655.253 0C670.042 0 682.366 3.70367 692.225 11.111C702.084 18.4591 709.003 28.385 712.982 40.8886L691.334 46.8441C688.839 38.4886 684.593 31.9701 678.594 27.2887C672.596 22.548 664.815 20.1776 655.253 20.1776C646.641 20.1776 639.455 22.1035 633.694 25.9553C627.992 29.8072 623.686 35.2294 620.776 42.2219C617.925 49.1552 616.47 57.3033 616.411 66.6662C616.411 76.029 617.836 84.2067 620.687 91.1993C623.597 98.1326 627.933 103.525 633.694 107.377C639.455 111.229 646.641 113.155 655.253 113.155C664.815 113.155 672.596 110.784 678.594 106.044C684.593 101.303 688.839 94.7844 691.334 86.4882L712.982 92.4437C709.003 104.947 702.084 114.903 692.225 122.31C682.366 129.658 670.042 133.332 655.253 133.332Z" fill="#222222"/>
<path d="M436.216 130.667V34.6675H453.855L488.333 100.978L522.899 34.6675H540.449V130.667H519.959V77.7783L492.609 130.667H484.145L456.795 77.7783V130.667H436.216Z" fill="#222222"/>
<path d="M411.378 34.6675V130.667H390.799V68.0006L345.008 130.667H327.813V34.6675H348.393V95.7337L394.362 34.6675H411.378Z" fill="#222222"/>
<path d="M207.938 152V113.867C213.165 113.867 216.877 112.089 219.074 108.534C221.272 104.978 223.024 98.8151 224.33 90.0448C225.162 84.8301 225.845 79.319 226.379 73.5116C226.914 67.7043 227.359 61.571 227.716 55.1118C228.131 48.6526 228.488 41.8378 228.785 34.6675H300.412V113.867H310.122V152H289.81V130.667H228.161V152H207.938ZM236.714 113.867H279.03V51.4674H247.582C247.404 55.0229 247.196 58.6673 246.959 62.4006C246.721 66.0747 246.454 69.7487 246.157 73.4227C245.86 77.0968 245.533 80.6227 245.177 84.0004C244.88 87.3189 244.524 90.4004 244.108 93.2448C243.455 98.2225 242.653 102.311 241.702 105.511C240.752 108.711 239.089 111.497 236.714 113.867Z" fill="#222222"/>
<path d="M139.309 133.334C132.36 133.334 126.481 132.031 121.67 129.423C116.859 126.757 113.206 123.231 110.712 118.846C108.277 114.461 107.059 109.631 107.059 104.357C107.059 99.7348 107.831 95.5866 109.376 91.9126C110.92 88.1793 113.296 84.9793 116.503 82.3127C119.71 79.5868 123.867 77.3646 128.975 75.6461C132.836 74.4016 137.349 73.2757 142.516 72.2683C147.743 71.2609 153.385 70.3424 159.443 69.5128C165.561 68.6239 171.945 67.6758 178.597 66.6684L170.936 71.0239C170.995 64.3869 169.51 59.498 166.481 56.3573C163.452 53.2166 158.344 51.6462 151.158 51.6462C146.822 51.6462 142.635 52.6536 138.597 54.6684C134.558 56.6832 131.737 60.1499 130.133 65.0684L110.534 58.9351C112.909 50.8166 117.423 44.2981 124.075 39.3797C130.787 34.4612 139.814 32.002 151.158 32.002C159.711 32.002 167.224 33.3945 173.697 36.1797C180.231 38.9649 185.071 43.5278 188.219 49.8685C189.941 53.2462 190.981 56.7129 191.337 60.2684C191.693 63.7647 191.871 67.5868 191.871 71.735V130.668H173.074V109.868L176.192 113.246C171.856 120.179 166.778 125.275 160.958 128.535C155.197 131.735 147.981 133.334 139.309 133.334ZM143.586 116.268C148.456 116.268 152.613 115.409 156.058 113.69C159.503 111.972 162.235 109.868 164.254 107.379C166.333 104.89 167.728 102.55 168.441 100.357C169.57 97.6311 170.193 94.52 170.312 91.0237C170.49 87.4682 170.579 84.5941 170.579 82.4016L177.172 84.3571C170.698 85.3645 165.145 86.2534 160.512 87.0237C155.88 87.7941 151.9 88.5348 148.574 89.2459C145.249 89.8978 142.309 90.6385 139.755 91.4682C137.26 92.357 135.152 93.3941 133.429 94.5792C131.707 95.7644 130.371 97.1274 129.42 98.6681C128.53 100.209 128.084 102.016 128.084 104.09C128.084 106.461 128.678 108.564 129.866 110.401C131.054 112.179 132.776 113.601 135.033 114.668C137.349 115.735 140.2 116.268 143.586 116.268Z" fill="#222222"/>
<path d="M0 130.668V2.66943H50.8694C59.5407 2.66943 66.6381 4.41757 72.1615 7.91384C77.7444 11.3508 81.8722 15.7656 84.5448 21.1582C87.2768 26.5507 88.6429 32.1211 88.6429 37.8692C88.6429 44.921 86.9502 50.9061 83.5648 55.8246C80.2389 60.7431 75.6954 64.0615 69.9343 65.7801V61.3356C78.0117 63.1727 84.1291 66.9949 88.2865 72.8022C92.5034 78.6096 94.6118 85.2169 94.6118 92.6243C94.6118 100.209 93.1567 106.846 90.2465 112.535C87.3362 118.224 83.0006 122.668 77.2396 125.868C71.5379 129.068 64.4702 130.668 56.0365 130.668H0ZM21.7375 110.491H53.3639C57.1056 110.491 60.4613 109.75 63.4309 108.269C66.4005 106.728 68.7168 104.595 70.3798 101.869C72.1021 99.0835 72.9633 95.7946 72.9633 92.0021C72.9633 88.5651 72.2209 85.4836 70.7361 82.7577C69.2513 80.0318 67.0835 77.8689 64.2327 76.2689C61.3818 74.6096 57.9668 73.78 53.9875 73.78H21.7375V110.491ZM21.7375 53.7801H50.6022C53.6906 53.7801 56.4523 53.1876 58.8874 52.0024C61.3225 50.8172 63.2527 49.0691 64.6781 46.758C66.1035 44.4469 66.8162 41.6025 66.8162 38.2247C66.8162 33.7803 65.3908 30.0766 62.54 27.1137C59.6892 24.1507 55.7099 22.6693 50.6022 22.6693H21.7375V53.7801Z" fill="#222222"/>
</svg>
