<svg width="1376" height="159" viewBox="0 0 1376 159" fill="none" xmlns="http://www.w3.org/2000/svg">
<path d="M1336.24 91.0447H1305.75L1305.57 74.5151H1330.75C1334.11 74.5151 1336.84 74.1944 1338.94 73.553C1341.04 72.8533 1342.57 71.833 1343.53 70.492C1344.55 69.0926 1345.06 67.4018 1345.06 65.4194C1345.06 63.6702 1344.73 62.1834 1344.07 60.959C1343.47 59.6762 1342.54 58.6267 1341.28 57.8105C1340.02 56.9942 1338.43 56.4111 1336.51 56.0613C1334.65 55.6531 1332.46 55.4491 1329.94 55.4491H1315.37V130.576H1289.47V35.9458H1329.94C1336.3 35.9458 1342 36.4997 1347.04 37.6075C1352.07 38.657 1356.36 40.2604 1359.9 42.4177C1363.5 44.5751 1366.23 47.3154 1368.08 50.6389C1370 53.904 1370.96 57.7813 1370.96 62.2708C1370.96 65.1861 1370.27 67.9265 1368.89 70.492C1367.57 73.0574 1365.6 75.3313 1362.96 77.3137C1360.32 79.2961 1357.05 80.9287 1353.15 82.2114C1349.31 83.4358 1344.88 84.1938 1339.84 84.4853L1336.24 91.0447ZM1336.24 130.576H1299.36L1308.27 111.073H1336.24C1339.42 111.073 1342.03 110.694 1344.07 109.936C1346.11 109.178 1347.6 108.07 1348.56 106.612C1349.58 105.096 1350.09 103.289 1350.09 101.19C1350.09 99.1492 1349.64 97.3709 1348.74 95.855C1347.84 94.339 1346.38 93.1729 1344.34 92.3566C1342.36 91.482 1339.66 91.0447 1336.24 91.0447H1312.04L1312.22 74.5151H1339.75L1346.05 81.1619C1352.88 81.5701 1358.52 82.8236 1362.96 84.9226C1367.39 87.0216 1370.66 89.7037 1372.76 92.9688C1374.92 96.1756 1376 99.7031 1376 103.551C1376 108.041 1375.13 111.977 1373.39 115.358C1371.65 118.74 1369.07 121.568 1365.66 123.842C1362.3 126.057 1358.16 127.748 1353.24 128.914C1348.32 130.022 1342.66 130.576 1336.24 130.576Z" fill="#222222"/>
<path d="M1179.63 84.2231V82.3865C1179.63 75.4481 1180.65 69.0636 1182.69 63.233C1184.73 57.3442 1187.7 52.2424 1191.6 47.9278C1195.5 43.6132 1200.29 40.2606 1205.99 37.87C1211.69 35.4212 1218.22 34.1968 1225.6 34.1968C1232.98 34.1968 1239.54 35.4212 1245.3 37.87C1251.06 40.2606 1255.88 43.6132 1259.78 47.9278C1263.74 52.2424 1266.74 57.3442 1268.78 63.233C1270.82 69.0636 1271.84 75.4481 1271.84 82.3865V84.2231C1271.84 91.1032 1270.82 97.4877 1268.78 103.377C1266.74 109.207 1263.74 114.309 1259.78 118.682C1255.88 122.996 1251.09 126.349 1245.39 128.74C1239.69 131.13 1233.16 132.325 1225.78 132.325C1218.4 132.325 1211.84 131.13 1206.08 128.74C1200.38 126.349 1195.56 122.996 1191.6 118.682C1187.7 114.309 1184.73 109.207 1182.69 103.377C1180.65 97.4877 1179.63 91.1032 1179.63 84.2231ZM1205.54 82.3865V84.2231C1205.54 88.1879 1205.9 91.8903 1206.62 95.3304C1207.34 98.7704 1208.48 101.802 1210.04 104.426C1211.66 106.992 1213.76 109.003 1216.33 110.461C1218.91 111.918 1222.06 112.647 1225.78 112.647C1229.38 112.647 1232.47 111.918 1235.04 110.461C1237.62 109.003 1239.69 106.992 1241.25 104.426C1242.81 101.802 1243.95 98.7704 1244.67 95.3304C1245.45 91.8903 1245.84 88.1879 1245.84 84.2231V82.3865C1245.84 78.5383 1245.45 74.9234 1244.67 71.5416C1243.95 68.1016 1242.78 65.0697 1241.16 62.4459C1239.6 59.7639 1237.53 57.6648 1234.95 56.1489C1232.38 54.6329 1229.26 53.875 1225.6 53.875C1221.94 53.875 1218.82 54.6329 1216.24 56.1489C1213.73 57.6648 1211.66 59.7639 1210.04 62.4459C1208.48 65.0697 1207.34 68.1016 1206.62 71.5416C1205.9 74.9234 1205.54 78.5383 1205.54 82.3865Z" fill="#222222"/>
<path d="M1146.08 74.1652V93.756H1096.61V74.1652H1146.08ZM1105.24 35.9458V130.576H1079.34V35.9458H1105.24ZM1163.62 35.9458V130.576H1137.63V35.9458H1163.62Z" fill="#222222"/>
<path d="M1024.74 132.325C1017.18 132.325 1010.4 131.159 1004.41 128.827C998.41 126.436 993.313 123.142 989.115 118.944C984.977 114.746 981.799 109.877 979.58 104.338C977.361 98.7408 976.252 92.7936 976.252 86.4966V82.9983C976.252 75.8266 977.301 69.2672 979.4 63.3201C981.499 57.3729 984.498 52.2128 988.396 47.8399C992.353 43.4669 997.151 40.1144 1002.79 37.7821C1008.42 35.3916 1014.78 34.1963 1021.86 34.1963C1028.75 34.1963 1034.87 35.3041 1040.21 37.5198C1045.55 39.7354 1050.01 42.8839 1053.61 46.9653C1057.27 51.0467 1060.03 55.9444 1061.89 61.6583C1063.75 67.314 1064.68 73.611 1064.68 80.5494V91.0444H987.316V74.2524H1039.22V72.3283C1039.22 68.8299 1038.56 65.7106 1037.24 62.9702C1035.98 60.1715 1034.06 57.9559 1031.48 56.3234C1028.9 54.6908 1025.61 53.8745 1021.59 53.8745C1018.17 53.8745 1015.23 54.6033 1012.77 56.061C1010.31 57.5186 1008.3 59.5593 1006.75 62.1831C1005.25 64.8069 1004.11 67.8971 1003.33 71.4537C1002.61 74.9521 1002.25 78.8002 1002.25 82.9983V86.4966C1002.25 90.2865 1002.79 93.7848 1003.87 96.9916C1005.01 100.198 1006.6 102.968 1008.63 105.3C1010.73 107.632 1013.25 109.44 1016.19 110.723C1019.19 112.005 1022.58 112.647 1026.36 112.647C1031.03 112.647 1035.38 111.772 1039.4 110.023C1043.48 108.215 1046.98 105.504 1049.92 101.889L1062.52 115.183C1060.48 118.04 1057.69 120.78 1054.15 123.404C1050.67 126.028 1046.47 128.185 1041.56 129.876C1036.64 131.509 1031.03 132.325 1024.74 132.325ZM984.258 10.9323C984.258 7.90043 985.427 5.33498 987.766 3.23597C990.165 1.07866 993.103 0 996.581 0C1000.18 0 1003.15 1.07866 1005.49 3.23597C1007.83 5.33498 1008.99 7.90043 1008.99 10.9323C1008.99 13.9642 1007.83 16.5297 1005.49 18.6287C1003.15 20.7277 1000.18 21.7772 996.581 21.7772C993.103 21.7772 990.165 20.7277 987.766 18.6287C985.427 16.5297 984.258 13.9642 984.258 10.9323ZM1028.42 11.0198C1028.42 7.92958 1029.59 5.33498 1031.93 3.23597C1034.27 1.13696 1037.21 0.0874586 1040.75 0.0874586C1044.29 0.0874586 1047.22 1.13696 1049.56 3.23597C1051.96 5.33498 1053.16 7.92958 1053.16 11.0198C1053.16 14.0517 1051.96 16.6171 1049.56 18.7161C1047.22 20.7569 1044.29 21.7772 1040.75 21.7772C1037.21 21.7772 1034.27 20.7569 1031.93 18.7161C1029.59 16.6171 1028.42 14.0517 1028.42 11.0198Z" fill="#222222"/>
<path d="M899.163 101.627L924.71 35.9458H945.848L907.888 130.576H890.438L852.658 35.9458H873.797L899.163 101.627ZM867.59 35.9458V130.576H841.684V35.9458H867.59ZM931.366 130.576V35.9458H957.272V130.576H931.366Z" fill="#222222"/>
<path d="M785.283 132.325C777.727 132.325 770.951 131.159 764.954 128.827C758.957 126.436 753.86 123.142 749.662 118.944C745.524 114.746 742.346 109.878 740.127 104.339C737.908 98.7413 736.799 92.7941 736.799 86.497V82.9987C736.799 75.8271 737.848 69.2677 739.947 63.3205C742.046 57.3733 745.044 52.2133 748.942 47.8403C752.9 43.4674 757.698 40.1148 763.335 37.7826C768.972 35.392 775.328 34.1968 782.405 34.1968C789.301 34.1968 795.418 35.3046 800.755 37.5202C806.092 39.7358 810.56 42.8843 814.158 46.9657C817.816 51.0471 820.574 55.9448 822.433 61.6588C824.292 67.3144 825.222 73.6115 825.222 80.5499V91.0449H747.863V74.2528H799.765V72.3287C799.765 68.8304 799.106 65.711 797.786 62.9707C796.527 60.172 794.608 57.9564 792.03 56.3238C789.451 54.6913 786.153 53.875 782.135 53.875C778.717 53.875 775.778 54.6038 773.319 56.0614C770.861 57.5191 768.852 59.5598 767.293 62.1835C765.793 64.8073 764.654 67.8975 763.874 71.4542C763.155 74.9525 762.795 78.8007 762.795 82.9987V86.497C762.795 90.2869 763.335 93.7853 764.414 96.9921C765.554 100.199 767.143 102.968 769.182 105.301C771.281 107.633 773.799 109.44 776.738 110.723C779.736 112.006 783.124 112.647 786.902 112.647C791.58 112.647 795.927 111.773 799.945 110.023C804.023 108.216 807.531 105.505 810.47 101.89L823.063 115.183C821.024 118.04 818.236 120.781 814.698 123.405C811.219 126.028 807.022 128.186 802.104 129.877C797.187 131.509 791.58 132.325 785.283 132.325Z" fill="#222222"/>
<path d="M697.49 88.3333H724.386C723.846 96.9042 721.417 104.513 717.1 111.16C712.842 117.807 706.875 122.996 699.199 126.728C691.583 130.459 682.408 132.325 671.674 132.325C663.278 132.325 655.752 130.926 649.096 128.127C642.439 125.27 636.742 121.189 632.005 115.883C627.327 110.577 623.759 104.163 621.3 96.6419C618.842 89.1204 617.612 80.6952 617.612 71.3663V62.533C617.612 53.2041 618.872 44.7789 621.39 37.2575C623.969 29.6777 627.627 23.2349 632.364 17.9291C637.162 12.6233 642.889 8.54187 649.545 5.68489C656.202 2.8279 663.638 1.39941 671.854 1.39941C682.768 1.39941 691.973 3.3235 699.469 7.17168C707.025 11.0199 712.872 16.3257 717.01 23.0892C721.207 29.8526 723.726 37.549 724.566 46.1782H697.58C697.28 41.0473 696.231 36.7035 694.432 33.1469C692.633 29.5319 689.904 26.8207 686.246 25.0132C682.648 23.1475 677.85 22.2146 671.854 22.2146C667.356 22.2146 663.428 23.0308 660.07 24.6634C656.712 26.296 653.893 28.774 651.614 32.0974C649.335 35.4208 647.626 39.6188 646.487 44.6914C645.408 49.7057 644.868 55.5946 644.868 62.3581V71.3663C644.868 77.9549 645.378 83.7563 646.397 88.7706C647.416 93.7266 648.976 97.9246 651.075 101.365C653.233 104.746 655.992 107.312 659.35 109.061C662.768 110.752 666.876 111.597 671.674 111.597C677.311 111.597 681.958 110.723 685.616 108.974C689.274 107.224 692.063 104.63 693.982 101.19C695.961 97.7497 697.13 93.4642 697.49 88.3333Z" fill="#222222"/>
<path d="M493.298 101.627L518.845 35.9458H539.984L502.024 130.576H484.573L446.793 35.9458H467.932L493.298 101.627ZM461.725 35.9458V130.576H435.819V35.9458H461.725ZM525.501 130.576V35.9458H551.408V130.576H525.501Z" fill="#222222"/>
<path d="M355.581 95.4177L388.234 35.9458H414.14V130.576H388.234V71.0167L355.581 130.576H329.675V35.9458H355.581V95.4177Z" fill="#222222"/>
<path d="M232.167 35.9458H258.073L257.264 67.6058C257.024 77.751 255.824 86.4677 253.665 93.756C251.507 101.044 248.628 107.166 245.03 112.122C241.432 117.078 237.324 121.043 232.707 124.017C228.149 126.932 223.351 129.118 218.314 130.576H213.457L213.187 111.16L215.885 110.898C218.944 107.808 221.463 104.805 223.441 101.89C225.42 98.916 226.95 95.7967 228.029 92.5315C229.108 89.2664 229.888 85.6223 230.368 81.5992C230.907 77.5761 231.237 72.9117 231.357 67.6058L232.167 35.9458ZM239.183 35.9458H303.679V130.576H277.863V56.1487H239.183V35.9458ZM207.52 110.898H317.621V159H291.715V130.576H234.056V159H207.52V110.898Z" fill="#222222"/>
<path d="M168.571 109.236V67.0812C168.571 64.0493 168.061 61.4547 167.041 59.2974C166.022 57.0818 164.433 55.3618 162.274 54.1373C160.175 52.9129 157.446 52.3007 154.088 52.3007C151.21 52.3007 148.721 52.7963 146.622 53.7875C144.523 54.7204 142.904 56.0906 141.765 57.8981C140.625 59.6472 140.056 61.7171 140.056 64.1076H114.149C114.149 60.0845 115.109 56.2655 117.028 52.6506C118.947 49.0356 121.735 45.8579 125.393 43.1176C129.052 40.3189 133.399 38.1324 138.437 36.5582C143.534 34.9839 149.231 34.1968 155.527 34.1968C163.083 34.1968 169.8 35.4212 175.677 37.87C181.554 40.3189 186.171 43.9921 189.529 48.8898C192.948 53.7875 194.657 59.9096 194.657 67.2561V107.749C194.657 112.939 194.987 117.195 195.646 120.518C196.306 123.784 197.265 126.641 198.525 129.089V130.576H172.349C171.089 128.011 170.13 124.804 169.47 120.956C168.87 117.049 168.571 113.143 168.571 109.236ZM171.989 72.941L172.169 87.1967H157.686C154.268 87.1967 151.3 87.5757 148.781 88.3337C146.262 89.0917 144.194 90.1703 142.574 91.5696C140.955 92.9107 139.756 94.4849 138.976 96.2924C138.257 98.0999 137.897 100.082 137.897 102.24C137.897 104.397 138.407 106.35 139.426 108.099C140.445 109.79 141.915 111.131 143.834 112.122C145.753 113.055 148.001 113.522 150.58 113.522C154.478 113.522 157.866 112.764 160.745 111.248C163.623 109.732 165.842 107.866 167.401 105.65C169.02 103.435 169.86 101.336 169.92 99.3535L176.756 110.023C175.797 112.414 174.477 114.892 172.798 117.457C171.179 120.023 169.11 122.443 166.592 124.716C164.073 126.932 161.045 128.769 157.506 130.226C153.968 131.626 149.771 132.325 144.913 132.325C138.736 132.325 133.129 131.13 128.092 128.74C123.115 126.291 119.157 122.938 116.218 118.682C113.34 114.367 111.901 109.47 111.901 103.989C111.901 99.0328 112.86 94.6307 114.779 90.7825C116.698 86.9343 119.517 83.6984 123.235 81.0746C127.013 78.3925 131.72 76.381 137.357 75.04C142.994 73.6406 149.531 72.941 156.967 72.941H171.989Z" fill="#222222"/>
<path d="M51.2728 74.6896H17.6306L17.4507 56.6731H45.6958C50.6731 56.6731 54.7509 56.0609 57.9293 54.8364C61.1076 53.5537 63.4763 51.7171 65.0355 49.3265C66.6546 46.8777 67.4642 43.9041 67.4642 40.4058C67.4642 36.441 66.6846 33.2342 65.1255 30.7853C63.6262 28.3365 61.2575 26.5581 58.0192 25.4503C54.8409 24.3425 50.7331 23.7886 45.6958 23.7886H26.9857V130.576H0V3.23584H45.6958C53.3117 3.23584 60.1181 3.93551 66.1149 5.33485C72.1717 6.73419 77.299 8.86235 81.4968 11.7193C85.6945 14.5763 88.9028 18.1913 91.1217 22.5642C93.3405 26.8788 94.4499 32.0097 94.4499 37.9569C94.4499 43.2044 93.2205 48.0438 90.7618 52.4751C88.3631 56.9063 84.5551 60.5212 79.3379 63.3199C74.1806 66.1186 67.4342 67.6637 59.0986 67.9552L51.2728 74.6896ZM50.1034 130.576H10.2546L20.779 110.11H50.1034C54.8409 110.11 58.7089 109.381 61.7073 107.924C64.7057 106.408 66.9245 104.367 68.3637 101.802C69.803 99.2363 70.5226 96.2918 70.5226 92.9684C70.5226 89.2368 69.8629 86.0009 68.5436 83.2605C67.2843 80.5201 65.2454 78.4211 62.4269 76.9635C59.6084 75.4475 55.8903 74.6896 51.2728 74.6896H25.2766L25.4565 56.6731H57.8393L64.046 63.7572C72.0218 63.6406 78.4384 65.0108 83.2958 67.8678C88.2132 70.6665 91.7813 74.3106 94.0001 78.8001C96.2789 83.2896 97.4183 88.0999 97.4183 93.2308C97.4183 101.394 95.5893 108.274 91.9312 113.871C88.2732 119.41 82.906 123.579 75.8298 126.378C68.8135 129.176 60.238 130.576 50.1034 130.576Z" fill="#222222"/>
</svg>
